<mxfile host="Electron" modified="2023-07-05T03:04:25.460Z" agent="Mozilla/5.0 (X11; Linux x86_64) AppleWebKit/537.36 (KHTML, like Gecko) draw.io/21.5.1 Chrome/112.0.5615.204 Electron/24.6.0 Safari/537.36" etag="Zj5P4zoL2fCytZUq2rkW" version="21.5.1" type="device">
  <diagram name="Page-1" id="efa7a0a1-bf9b-a30e-e6df-94a7791c09e9">
    <mxGraphModel dx="2228" dy="1308" grid="1" gridSize="10" guides="1" tooltips="1" connect="1" arrows="1" fold="1" page="1" pageScale="1" pageWidth="826" pageHeight="1169" background="none" math="0" shadow="0">
      <root>
        <mxCell id="0" />
        <mxCell id="1" parent="0" />
        <mxCell id="20" value="&lt;p style=&quot;margin: 0px; margin-top: 4px; text-align: center; text-decoration: underline;&quot;&gt;&lt;strong&gt;HoursRegistered&lt;/strong&gt;&lt;/p&gt;&lt;hr&gt;&lt;p style=&quot;margin: 0px; margin-left: 8px;&quot;&gt;IdHoursRegistered&lt;/p&gt;&lt;p style=&quot;margin: 0px; margin-left: 8px;&quot;&gt;AmountOfHours&lt;/p&gt;&lt;p style=&quot;margin: 0px; margin-left: 8px;&quot;&gt;DateOfWork&lt;/p&gt;" style="verticalAlign=top;align=left;overflow=fill;fontSize=12;fontFamily=Helvetica;html=1;strokeColor=#003366;shadow=1;fillColor=#D4E1F5;fontColor=#003366" parent="1" vertex="1">
          <mxGeometry x="78" y="526.25" width="160" height="85" as="geometry" />
        </mxCell>
        <mxCell id="zfTTGvhppYqI7xpnwaoA-194" style="edgeStyle=orthogonalEdgeStyle;rounded=0;orthogonalLoop=1;jettySize=auto;html=1;entryX=0.5;entryY=0;entryDx=0;entryDy=0;endArrow=none;endFill=0;" edge="1" parent="1" source="21" target="35">
          <mxGeometry relative="1" as="geometry" />
        </mxCell>
        <mxCell id="21" value="&lt;p style=&quot;margin: 0px; margin-top: 4px; text-align: center; text-decoration: underline;&quot;&gt;&lt;strong&gt;Project&lt;/strong&gt;&lt;/p&gt;&lt;hr&gt;&lt;p style=&quot;margin: 0px; margin-left: 8px;&quot;&gt;IdProject&lt;/p&gt;&lt;p style=&quot;margin: 0px; margin-left: 8px;&quot;&gt;Name&lt;/p&gt;&lt;p style=&quot;margin: 0px; margin-left: 8px;&quot;&gt;Description&lt;/p&gt;&lt;p style=&quot;margin: 0px; margin-left: 8px;&quot;&gt;State&lt;/p&gt;&lt;p style=&quot;margin: 0px; margin-left: 8px;&quot;&gt;StartDate&lt;/p&gt;&lt;p style=&quot;margin: 0px; margin-left: 8px;&quot;&gt;EndDate&lt;/p&gt;&lt;p style=&quot;margin: 0px; margin-left: 8px;&quot;&gt;/HoursWorked&lt;/p&gt;&lt;p style=&quot;margin: 0px; margin-left: 8px;&quot;&gt;/EstimatedHours&lt;/p&gt;" style="verticalAlign=top;align=left;overflow=fill;fontSize=12;fontFamily=Helvetica;html=1;strokeColor=#003366;shadow=1;fillColor=#D4E1F5;fontColor=#003366" parent="1" vertex="1">
          <mxGeometry x="460" y="109.99999999999976" width="160" height="160" as="geometry" />
        </mxCell>
        <mxCell id="zfTTGvhppYqI7xpnwaoA-155" style="edgeStyle=orthogonalEdgeStyle;rounded=0;orthogonalLoop=1;jettySize=auto;html=1;exitX=1;exitY=0.25;exitDx=0;exitDy=0;entryX=0.25;entryY=0;entryDx=0;entryDy=0;endArrow=none;endFill=0;" edge="1" parent="1" source="22" target="33">
          <mxGeometry relative="1" as="geometry">
            <Array as="points">
              <mxPoint x="1175" y="101" />
              <mxPoint x="1340" y="101" />
              <mxPoint x="1340" y="460" />
              <mxPoint x="1440" y="460" />
            </Array>
          </mxGeometry>
        </mxCell>
        <mxCell id="22" value="&lt;p style=&quot;margin: 0px; margin-top: 4px; text-align: center; text-decoration: underline;&quot;&gt;&lt;b&gt;Client&lt;/b&gt;&lt;/p&gt;&lt;hr&gt;&lt;p style=&quot;margin: 0px; margin-left: 8px;&quot;&gt;IdClient&lt;/p&gt;&lt;p style=&quot;margin: 0px; margin-left: 8px;&quot;&gt;IdCompany&lt;/p&gt;&lt;p style=&quot;margin: 0px; margin-left: 8px;&quot;&gt;Name&lt;/p&gt;&lt;p style=&quot;margin: 0px; margin-left: 8px;&quot;&gt;LastName&lt;/p&gt;&lt;p style=&quot;margin: 0px; margin-left: 8px;&quot;&gt;Email&lt;/p&gt;&lt;p style=&quot;margin: 0px; margin-left: 8px;&quot;&gt;CreatedAt&lt;/p&gt;&lt;p style=&quot;margin: 0px; margin-left: 8px;&quot;&gt;UpdatedAt&lt;/p&gt;&lt;p style=&quot;margin: 0px; margin-left: 8px;&quot;&gt;CUIL&lt;/p&gt;" style="verticalAlign=top;align=left;overflow=fill;fontSize=12;fontFamily=Helvetica;html=1;strokeColor=#003366;shadow=1;fillColor=#D4E1F5;fontColor=#003366" parent="1" vertex="1">
          <mxGeometry x="1005" y="54.96" width="170" height="165.04" as="geometry" />
        </mxCell>
        <mxCell id="zfTTGvhppYqI7xpnwaoA-201" style="edgeStyle=orthogonalEdgeStyle;rounded=0;orthogonalLoop=1;jettySize=auto;html=1;entryX=0.25;entryY=1;entryDx=0;entryDy=0;endArrow=none;endFill=0;" edge="1" parent="1" source="25" target="28">
          <mxGeometry relative="1" as="geometry" />
        </mxCell>
        <mxCell id="zfTTGvhppYqI7xpnwaoA-208" style="edgeStyle=orthogonalEdgeStyle;rounded=0;orthogonalLoop=1;jettySize=auto;html=1;entryX=0.5;entryY=0;entryDx=0;entryDy=0;endArrow=none;endFill=0;" edge="1" parent="1" source="25" target="21">
          <mxGeometry relative="1" as="geometry">
            <Array as="points">
              <mxPoint x="50" y="964" />
              <mxPoint x="50" y="90" />
              <mxPoint x="540" y="90" />
            </Array>
          </mxGeometry>
        </mxCell>
        <mxCell id="25" value="&lt;p style=&quot;margin: 0px; margin-top: 4px; text-align: center; text-decoration: underline;&quot;&gt;&lt;strong&gt;Resource&lt;/strong&gt;&lt;/p&gt;&lt;hr&gt;&lt;p style=&quot;margin: 0px; margin-left: 8px;&quot;&gt;IdResouce&lt;/p&gt;&lt;p style=&quot;margin: 0px; margin-left: 8px;&quot;&gt;Name&lt;/p&gt;&lt;p style=&quot;margin: 0px; margin-left: 8px;&quot;&gt;Lastname&lt;/p&gt;" style="verticalAlign=top;align=left;overflow=fill;fontSize=12;fontFamily=Helvetica;html=1;strokeColor=#003366;shadow=1;fillColor=#D4E1F5;fontColor=#003366" parent="1" vertex="1">
          <mxGeometry x="460" y="920" width="160" height="88.36" as="geometry" />
        </mxCell>
        <mxCell id="28" value="&lt;p style=&quot;margin: 0px; margin-top: 4px; text-align: center; text-decoration: underline;&quot;&gt;&lt;strong&gt;Ticket&lt;/strong&gt;&lt;/p&gt;&lt;hr&gt;&lt;p style=&quot;margin: 0px; margin-left: 8px;&quot;&gt;IdTicket&lt;/p&gt;&lt;p style=&quot;margin: 0px; margin-left: 8px;&quot;&gt;Title&lt;/p&gt;&lt;p style=&quot;margin: 0px; margin-left: 8px;&quot;&gt;Description&lt;/p&gt;&lt;p style=&quot;margin: 0px; margin-left: 8px;&quot;&gt;State&lt;/p&gt;&lt;p style=&quot;margin: 0px; margin-left: 8px;&quot;&gt;Severity&lt;/p&gt;&lt;p style=&quot;margin: 0px; margin-left: 8px;&quot;&gt;Priority&lt;/p&gt;&lt;p style=&quot;margin: 0px; margin-left: 8px;&quot;&gt;CreatedAt&lt;/p&gt;&lt;p style=&quot;margin: 0px; margin-left: 8px;&quot;&gt;UpdatedAt&lt;/p&gt;&lt;p style=&quot;margin: 0px; margin-left: 8px;&quot;&gt;ExpirationTime&lt;/p&gt;" style="verticalAlign=top;align=left;overflow=fill;fontSize=12;fontFamily=Helvetica;html=1;strokeColor=#003366;shadow=1;fillColor=#D4E1F5;fontColor=#003366" parent="1" vertex="1">
          <mxGeometry x="1010" y="476.25000000000034" width="160" height="180" as="geometry" />
        </mxCell>
        <mxCell id="zfTTGvhppYqI7xpnwaoA-118" style="edgeStyle=orthogonalEdgeStyle;rounded=0;orthogonalLoop=1;jettySize=auto;html=1;endArrow=none;endFill=0;exitX=0.5;exitY=1;exitDx=0;exitDy=0;entryX=0.75;entryY=0;entryDx=0;entryDy=0;" edge="1" parent="1" source="29" target="33">
          <mxGeometry relative="1" as="geometry">
            <Array as="points">
              <mxPoint x="1520" y="330" />
              <mxPoint x="1520" y="330" />
            </Array>
          </mxGeometry>
        </mxCell>
        <mxCell id="29" value="&lt;p style=&quot;margin: 0px; margin-top: 4px; text-align: center; text-decoration: underline;&quot;&gt;&lt;b&gt;Product&lt;/b&gt;&lt;/p&gt;&lt;hr&gt;&lt;p style=&quot;margin: 0px; margin-left: 8px;&quot;&gt;IdProduct&lt;/p&gt;&lt;p style=&quot;margin: 0px; margin-left: 8px;&quot;&gt;Name&lt;/p&gt;&lt;p style=&quot;margin: 0px; margin-left: 8px;&quot;&gt;Description&lt;/p&gt;&lt;p style=&quot;margin: 0px; margin-left: 8px;&quot;&gt;CreatedAt&lt;/p&gt;" style="verticalAlign=top;align=left;overflow=fill;fontSize=12;fontFamily=Helvetica;html=1;strokeColor=#003366;shadow=1;fillColor=#D4E1F5;fontColor=#003366" parent="1" vertex="1">
          <mxGeometry x="1440" y="91.64" width="160" height="110" as="geometry" />
        </mxCell>
        <mxCell id="33" value="&lt;p style=&quot;margin: 0px; margin-top: 4px; text-align: center; text-decoration: underline;&quot;&gt;&lt;strong&gt;Version&lt;/strong&gt;&lt;/p&gt;&lt;hr&gt;&lt;p style=&quot;margin: 0px; margin-left: 8px;&quot;&gt;IdVersion&lt;/p&gt;&lt;p style=&quot;margin: 0px 0px 0px 8px;&quot;&gt;versionNumber&lt;/p&gt;&lt;p style=&quot;margin: 0px 0px 0px 8px;&quot;&gt;Customization&lt;/p&gt;&lt;p style=&quot;margin: 0px 0px 0px 8px;&quot;&gt;&lt;br&gt;&lt;/p&gt;" style="verticalAlign=top;align=left;overflow=fill;fontSize=12;fontFamily=Helvetica;html=1;strokeColor=#003366;shadow=1;fillColor=#D4E1F5;fontColor=#003366;container=0;" parent="1" vertex="1">
          <mxGeometry x="1400" y="520" width="160" height="92.5" as="geometry" />
        </mxCell>
        <mxCell id="zfTTGvhppYqI7xpnwaoA-185" style="edgeStyle=orthogonalEdgeStyle;rounded=0;orthogonalLoop=1;jettySize=auto;html=1;exitX=0.5;exitY=1;exitDx=0;exitDy=0;entryX=0.5;entryY=0;entryDx=0;entryDy=0;endArrow=none;endFill=0;" edge="1" parent="1" source="35" target="25">
          <mxGeometry relative="1" as="geometry" />
        </mxCell>
        <mxCell id="35" value="&lt;p style=&quot;margin: 0px; margin-top: 4px; text-align: center; text-decoration: underline;&quot;&gt;&lt;strong&gt;Task&lt;/strong&gt;&lt;/p&gt;&lt;hr&gt;&lt;p style=&quot;margin: 0px; margin-left: 8px;&quot;&gt;IdTask&lt;/p&gt;&lt;p style=&quot;margin: 0px; margin-left: 8px;&quot;&gt;Name&lt;/p&gt;&lt;p style=&quot;margin: 0px; margin-left: 8px;&quot;&gt;Description&lt;/p&gt;&lt;p style=&quot;margin: 0px; margin-left: 8px;&quot;&gt;State&lt;/p&gt;&lt;p style=&quot;margin: 0px; margin-left: 8px;&quot;&gt;StartDate&lt;/p&gt;&lt;p style=&quot;margin: 0px; margin-left: 8px;&quot;&gt;EndDate&lt;/p&gt;&lt;p style=&quot;margin: 0px; margin-left: 8px;&quot;&gt;EstimatedHours&lt;/p&gt;&lt;p style=&quot;margin: 0px; margin-left: 8px;&quot;&gt;/HoursWorked&lt;/p&gt;" style="verticalAlign=top;align=left;overflow=fill;fontSize=12;fontFamily=Helvetica;html=1;strokeColor=#003366;shadow=1;fillColor=#D4E1F5;fontColor=#003366" parent="1" vertex="1">
          <mxGeometry x="460" y="487.5" width="160" height="162.5" as="geometry" />
        </mxCell>
        <mxCell id="zfTTGvhppYqI7xpnwaoA-127" value="1..n" style="resizable=0;align=left;verticalAlign=top;labelBackgroundColor=#ffffff;fontSize=10;strokeColor=#003366;shadow=1;fillColor=#D4E1F5;fontColor=#003366;container=0;" connectable="0" vertex="1" parent="1">
          <mxGeometry x="1529" y="496.25" as="geometry" />
        </mxCell>
        <mxCell id="zfTTGvhppYqI7xpnwaoA-128" value="1" style="resizable=0;align=left;verticalAlign=top;labelBackgroundColor=#ffffff;fontSize=10;strokeColor=#003366;shadow=1;fillColor=#D4E1F5;fontColor=#003366;container=0;" connectable="0" vertex="1" parent="1">
          <mxGeometry x="1500" y="211.64" as="geometry" />
        </mxCell>
        <mxCell id="zfTTGvhppYqI7xpnwaoA-130" value="Each Product&lt;br&gt;has one or more" style="text;html=1;align=center;verticalAlign=middle;resizable=0;points=[];autosize=1;strokeColor=none;fillColor=none;" vertex="1" parent="1">
          <mxGeometry x="1520" y="403.87" width="110" height="40" as="geometry" />
        </mxCell>
        <mxCell id="zfTTGvhppYqI7xpnwaoA-131" value="" style="shape=flexArrow;endArrow=classic;html=1;rounded=0;" edge="1" parent="1">
          <mxGeometry width="50" height="50" relative="1" as="geometry">
            <mxPoint x="1570" y="448.87" as="sourcePoint" />
            <mxPoint x="1570" y="491.37" as="targetPoint" />
          </mxGeometry>
        </mxCell>
        <mxCell id="zfTTGvhppYqI7xpnwaoA-132" value="Each Version &lt;br&gt;corresponds to one" style="text;html=1;align=center;verticalAlign=middle;resizable=0;points=[];autosize=1;strokeColor=none;fillColor=none;" vertex="1" parent="1">
          <mxGeometry x="1390" y="262.5" width="130" height="40" as="geometry" />
        </mxCell>
        <mxCell id="zfTTGvhppYqI7xpnwaoA-133" value="" style="shape=flexArrow;endArrow=classic;html=1;rounded=0;" edge="1" parent="1">
          <mxGeometry width="50" height="50" relative="1" as="geometry">
            <mxPoint x="1470" y="260" as="sourcePoint" />
            <mxPoint x="1470" y="220" as="targetPoint" />
          </mxGeometry>
        </mxCell>
        <mxCell id="zfTTGvhppYqI7xpnwaoA-134" value="" style="endArrow=none;html=1;rounded=0;exitX=1;exitY=0.5;exitDx=0;exitDy=0;entryX=0;entryY=0.5;entryDx=0;entryDy=0;" edge="1" parent="1" source="28" target="33">
          <mxGeometry width="50" height="50" relative="1" as="geometry">
            <mxPoint x="1190" y="560" as="sourcePoint" />
            <mxPoint x="1280" y="540" as="targetPoint" />
          </mxGeometry>
        </mxCell>
        <mxCell id="zfTTGvhppYqI7xpnwaoA-135" value="0..n" style="resizable=0;align=left;verticalAlign=top;labelBackgroundColor=#ffffff;fontSize=10;strokeColor=#003366;shadow=1;fillColor=#D4E1F5;fontColor=#003366;container=0;" connectable="0" vertex="1" parent="1">
          <mxGeometry x="1170" y="568.75" as="geometry" />
        </mxCell>
        <mxCell id="zfTTGvhppYqI7xpnwaoA-136" value="1" style="resizable=0;align=left;verticalAlign=top;labelBackgroundColor=#ffffff;fontSize=10;strokeColor=#003366;shadow=1;fillColor=#D4E1F5;fontColor=#003366;container=0;" connectable="0" vertex="1" parent="1">
          <mxGeometry x="1384" y="536.25" as="geometry" />
        </mxCell>
        <mxCell id="zfTTGvhppYqI7xpnwaoA-137" value="Each Ticket &lt;br&gt;corresponds to one" style="text;html=1;align=center;verticalAlign=middle;resizable=0;points=[];autosize=1;strokeColor=none;fillColor=none;" vertex="1" parent="1">
          <mxGeometry x="1260" y="491.37" width="130" height="40" as="geometry" />
        </mxCell>
        <mxCell id="zfTTGvhppYqI7xpnwaoA-138" value="" style="shape=flexArrow;endArrow=classic;html=1;rounded=0;" edge="1" parent="1">
          <mxGeometry width="50" height="50" relative="1" as="geometry">
            <mxPoint x="1310" y="545.54" as="sourcePoint" />
            <mxPoint x="1350" y="545.54" as="targetPoint" />
          </mxGeometry>
        </mxCell>
        <mxCell id="zfTTGvhppYqI7xpnwaoA-220" value="" style="edgeStyle=orthogonalEdgeStyle;rounded=0;orthogonalLoop=1;jettySize=auto;html=1;" edge="1" parent="1" source="zfTTGvhppYqI7xpnwaoA-139" target="28">
          <mxGeometry relative="1" as="geometry" />
        </mxCell>
        <mxCell id="zfTTGvhppYqI7xpnwaoA-139" value="Each Version&lt;br&gt;has zero or more" style="text;html=1;align=center;verticalAlign=middle;resizable=0;points=[];autosize=1;strokeColor=none;fillColor=none;" vertex="1" parent="1">
          <mxGeometry x="1190" y="601.25" width="110" height="40" as="geometry" />
        </mxCell>
        <mxCell id="zfTTGvhppYqI7xpnwaoA-140" value="" style="shape=flexArrow;endArrow=classic;html=1;rounded=0;" edge="1" parent="1">
          <mxGeometry width="50" height="50" relative="1" as="geometry">
            <mxPoint x="1265" y="584" as="sourcePoint" />
            <mxPoint x="1225" y="584" as="targetPoint" />
          </mxGeometry>
        </mxCell>
        <mxCell id="zfTTGvhppYqI7xpnwaoA-141" value="" style="endArrow=none;html=1;rounded=0;exitX=0.5;exitY=0;exitDx=0;exitDy=0;entryX=0.5;entryY=1;entryDx=0;entryDy=0;" edge="1" parent="1" source="28" target="22">
          <mxGeometry width="50" height="50" relative="1" as="geometry">
            <mxPoint x="1180" y="360" as="sourcePoint" />
            <mxPoint x="1230" y="310" as="targetPoint" />
          </mxGeometry>
        </mxCell>
        <mxCell id="zfTTGvhppYqI7xpnwaoA-142" value="0..n" style="resizable=0;align=left;verticalAlign=top;labelBackgroundColor=#ffffff;fontSize=10;strokeColor=#003366;shadow=1;fillColor=#D4E1F5;fontColor=#003366;container=0;" connectable="0" vertex="1" parent="1">
          <mxGeometry x="1060" y="452.5" as="geometry" />
        </mxCell>
        <mxCell id="zfTTGvhppYqI7xpnwaoA-145" value="1" style="resizable=0;align=left;verticalAlign=top;labelBackgroundColor=#ffffff;fontSize=10;strokeColor=#003366;shadow=1;fillColor=#D4E1F5;fontColor=#003366;container=0;" connectable="0" vertex="1" parent="1">
          <mxGeometry x="1100" y="220" as="geometry" />
        </mxCell>
        <mxCell id="zfTTGvhppYqI7xpnwaoA-146" value="Each Client &lt;br&gt;is associated to zero or more" style="text;html=1;align=center;verticalAlign=middle;resizable=0;points=[];autosize=1;strokeColor=none;fillColor=none;" vertex="1" parent="1">
          <mxGeometry x="910" y="350" width="180" height="40" as="geometry" />
        </mxCell>
        <mxCell id="zfTTGvhppYqI7xpnwaoA-147" value="Each Ticket &lt;br&gt;has associated one" style="text;html=1;align=center;verticalAlign=middle;resizable=0;points=[];autosize=1;strokeColor=none;fillColor=none;" vertex="1" parent="1">
          <mxGeometry x="1090" y="287.48" width="130" height="40" as="geometry" />
        </mxCell>
        <mxCell id="zfTTGvhppYqI7xpnwaoA-148" value="" style="shape=flexArrow;endArrow=classic;html=1;rounded=0;" edge="1" parent="1">
          <mxGeometry width="50" height="50" relative="1" as="geometry">
            <mxPoint x="1050" y="405" as="sourcePoint" />
            <mxPoint x="1050" y="447.5" as="targetPoint" />
          </mxGeometry>
        </mxCell>
        <mxCell id="zfTTGvhppYqI7xpnwaoA-149" value="" style="shape=flexArrow;endArrow=classic;html=1;rounded=0;" edge="1" parent="1">
          <mxGeometry width="50" height="50" relative="1" as="geometry">
            <mxPoint x="1140" y="277.5" as="sourcePoint" />
            <mxPoint x="1140" y="237.5" as="targetPoint" />
          </mxGeometry>
        </mxCell>
        <mxCell id="zfTTGvhppYqI7xpnwaoA-156" value="1..n" style="resizable=0;align=left;verticalAlign=top;labelBackgroundColor=#ffffff;fontSize=10;strokeColor=#003366;shadow=1;fillColor=#D4E1F5;fontColor=#003366;container=0;" connectable="0" vertex="1" parent="1">
          <mxGeometry x="1449" y="496.25" as="geometry" />
        </mxCell>
        <mxCell id="zfTTGvhppYqI7xpnwaoA-157" value="0..n" style="resizable=0;align=left;verticalAlign=top;labelBackgroundColor=#ffffff;fontSize=10;strokeColor=#003366;shadow=1;fillColor=#D4E1F5;fontColor=#003366;container=0;" connectable="0" vertex="1" parent="1">
          <mxGeometry x="1180" y="101.64" as="geometry" />
        </mxCell>
        <mxCell id="zfTTGvhppYqI7xpnwaoA-158" value="Each Client &lt;br&gt;has one or more" style="text;html=1;align=center;verticalAlign=middle;resizable=0;points=[];autosize=1;strokeColor=none;fillColor=none;" vertex="1" parent="1">
          <mxGeometry x="1350" y="370" width="110" height="40" as="geometry" />
        </mxCell>
        <mxCell id="zfTTGvhppYqI7xpnwaoA-159" value="" style="shape=flexArrow;endArrow=classic;html=1;rounded=0;exitX=0.664;exitY=1.111;exitDx=0;exitDy=0;exitPerimeter=0;" edge="1" parent="1" source="zfTTGvhppYqI7xpnwaoA-158">
          <mxGeometry width="50" height="50" relative="1" as="geometry">
            <mxPoint x="1419.75" y="420" as="sourcePoint" />
            <mxPoint x="1423" y="450" as="targetPoint" />
          </mxGeometry>
        </mxCell>
        <mxCell id="zfTTGvhppYqI7xpnwaoA-160" value="Each Version&lt;br&gt;corresponds to zero or more" style="text;html=1;align=center;verticalAlign=middle;resizable=0;points=[];autosize=1;strokeColor=none;fillColor=none;" vertex="1" parent="1">
          <mxGeometry x="1170" y="117.47999999999999" width="170" height="40" as="geometry" />
        </mxCell>
        <mxCell id="zfTTGvhppYqI7xpnwaoA-161" value="" style="shape=flexArrow;endArrow=classic;html=1;rounded=0;" edge="1" parent="1">
          <mxGeometry width="50" height="50" relative="1" as="geometry">
            <mxPoint x="1275" y="181.64" as="sourcePoint" />
            <mxPoint x="1235" y="181.64" as="targetPoint" />
          </mxGeometry>
        </mxCell>
        <mxCell id="zfTTGvhppYqI7xpnwaoA-162" value="&lt;font style=&quot;font-size: 28px;&quot;&gt;SUPPORT MODULE&lt;/font&gt;" style="text;html=1;align=center;verticalAlign=middle;resizable=0;points=[];autosize=1;strokeColor=#005700;fillColor=#008a00;fontColor=#ffffff;" vertex="1" parent="1">
          <mxGeometry x="1239" y="690" width="290" height="50" as="geometry" />
        </mxCell>
        <mxCell id="zfTTGvhppYqI7xpnwaoA-163" value="" style="endArrow=none;html=1;rounded=0;exitX=1;exitY=0.5;exitDx=0;exitDy=0;entryX=0;entryY=0.5;entryDx=0;entryDy=0;" edge="1" parent="1" source="35" target="28">
          <mxGeometry width="50" height="50" relative="1" as="geometry">
            <mxPoint x="830" y="540" as="sourcePoint" />
            <mxPoint x="880" y="490" as="targetPoint" />
          </mxGeometry>
        </mxCell>
        <mxCell id="zfTTGvhppYqI7xpnwaoA-164" value="0..n" style="resizable=0;align=left;verticalAlign=top;labelBackgroundColor=#ffffff;fontSize=10;strokeColor=#003366;shadow=1;fillColor=#D4E1F5;fontColor=#003366;container=0;" connectable="0" vertex="1" parent="1">
          <mxGeometry x="980" y="536.25" as="geometry" />
        </mxCell>
        <mxCell id="zfTTGvhppYqI7xpnwaoA-165" value="1" style="resizable=0;align=left;verticalAlign=top;labelBackgroundColor=#ffffff;fontSize=10;strokeColor=#003366;shadow=1;fillColor=#D4E1F5;fontColor=#003366;container=0;" connectable="0" vertex="1" parent="1">
          <mxGeometry x="435" y="568.75" as="geometry" />
        </mxCell>
        <mxCell id="zfTTGvhppYqI7xpnwaoA-166" value="Each Task&lt;br&gt;is associated to zero or more" style="text;html=1;align=center;verticalAlign=middle;resizable=0;points=[];autosize=1;strokeColor=none;fillColor=none;" vertex="1" parent="1">
          <mxGeometry x="826" y="476.25" width="180" height="40" as="geometry" />
        </mxCell>
        <mxCell id="zfTTGvhppYqI7xpnwaoA-167" value="" style="shape=flexArrow;endArrow=classic;html=1;rounded=0;" edge="1" parent="1">
          <mxGeometry width="50" height="50" relative="1" as="geometry">
            <mxPoint x="896" y="545.8300000000002" as="sourcePoint" />
            <mxPoint x="936" y="545.8300000000002" as="targetPoint" />
          </mxGeometry>
        </mxCell>
        <mxCell id="zfTTGvhppYqI7xpnwaoA-168" value="Each Ticket&lt;br&gt;has associated zero or more" style="text;html=1;align=center;verticalAlign=middle;resizable=0;points=[];autosize=1;strokeColor=none;fillColor=none;" vertex="1" parent="1">
          <mxGeometry x="630" y="619.38" width="170" height="40" as="geometry" />
        </mxCell>
        <mxCell id="zfTTGvhppYqI7xpnwaoA-169" value="" style="shape=flexArrow;endArrow=classic;html=1;rounded=0;" edge="1" parent="1">
          <mxGeometry width="50" height="50" relative="1" as="geometry">
            <mxPoint x="720" y="600.6300000000001" as="sourcePoint" />
            <mxPoint x="680" y="600.6300000000001" as="targetPoint" />
          </mxGeometry>
        </mxCell>
        <mxCell id="zfTTGvhppYqI7xpnwaoA-171" style="edgeStyle=orthogonalEdgeStyle;rounded=0;orthogonalLoop=1;jettySize=auto;html=1;entryX=0.75;entryY=1;entryDx=0;entryDy=0;" edge="1" parent="1" source="zfTTGvhppYqI7xpnwaoA-170" target="35">
          <mxGeometry relative="1" as="geometry" />
        </mxCell>
        <mxCell id="zfTTGvhppYqI7xpnwaoA-170" value="/HoursWorked is determined by the sum of the HoursRegistered for that Task" style="shape=note2;boundedLbl=1;whiteSpace=wrap;html=1;size=25;verticalAlign=top;align=center;" vertex="1" parent="1">
          <mxGeometry x="670" y="680" width="120" height="113" as="geometry" />
        </mxCell>
        <mxCell id="zfTTGvhppYqI7xpnwaoA-172" value="" style="endArrow=none;html=1;rounded=0;entryX=1;entryY=0.5;entryDx=0;entryDy=0;exitX=0;exitY=0.5;exitDx=0;exitDy=0;" edge="1" parent="1" source="35" target="20">
          <mxGeometry width="50" height="50" relative="1" as="geometry">
            <mxPoint x="530" y="360" as="sourcePoint" />
            <mxPoint x="580" y="310" as="targetPoint" />
          </mxGeometry>
        </mxCell>
        <mxCell id="zfTTGvhppYqI7xpnwaoA-173" value="0..n" style="resizable=0;align=left;verticalAlign=top;labelBackgroundColor=#ffffff;fontSize=10;strokeColor=#003366;shadow=1;fillColor=#D4E1F5;fontColor=#003366;container=0;" connectable="0" vertex="1" parent="1">
          <mxGeometry x="245" y="546.25" as="geometry" />
        </mxCell>
        <mxCell id="zfTTGvhppYqI7xpnwaoA-174" value="0..n" style="resizable=0;align=left;verticalAlign=top;labelBackgroundColor=#ffffff;fontSize=10;strokeColor=#003366;shadow=1;fillColor=#D4E1F5;fontColor=#003366;container=0;" connectable="0" vertex="1" parent="1">
          <mxGeometry x="630" y="580" as="geometry" />
        </mxCell>
        <mxCell id="zfTTGvhppYqI7xpnwaoA-175" value="Each Task&lt;br&gt;has associated zero or more" style="text;html=1;align=center;verticalAlign=middle;resizable=0;points=[];autosize=1;strokeColor=none;fillColor=none;" vertex="1" parent="1">
          <mxGeometry x="238" y="496.25" width="170" height="40" as="geometry" />
        </mxCell>
        <mxCell id="zfTTGvhppYqI7xpnwaoA-176" value="" style="shape=flexArrow;endArrow=classic;html=1;rounded=0;" edge="1" parent="1">
          <mxGeometry width="50" height="50" relative="1" as="geometry">
            <mxPoint x="490.00000000000006" y="727.7500000000001" as="sourcePoint" />
            <mxPoint x="490.00000000000006" y="685.25" as="targetPoint" />
            <Array as="points">
              <mxPoint x="490.00000000000006" y="715.25" />
            </Array>
          </mxGeometry>
        </mxCell>
        <mxCell id="zfTTGvhppYqI7xpnwaoA-177" value="" style="shape=flexArrow;endArrow=classic;html=1;rounded=0;" edge="1" parent="1">
          <mxGeometry width="50" height="50" relative="1" as="geometry">
            <mxPoint x="580" y="850" as="sourcePoint" />
            <mxPoint x="580" y="892.5000000000001" as="targetPoint" />
            <Array as="points">
              <mxPoint x="580" y="880" />
              <mxPoint x="580" y="863.75" />
            </Array>
          </mxGeometry>
        </mxCell>
        <mxCell id="zfTTGvhppYqI7xpnwaoA-178" value="An HoursRegistered&amp;nbsp;&lt;br&gt;corresponds to one" style="text;html=1;align=center;verticalAlign=middle;resizable=0;points=[];autosize=1;strokeColor=none;fillColor=none;" vertex="1" parent="1">
          <mxGeometry x="295" y="610" width="130" height="40" as="geometry" />
        </mxCell>
        <mxCell id="zfTTGvhppYqI7xpnwaoA-182" value="" style="shape=flexArrow;endArrow=classic;html=1;rounded=0;" edge="1" parent="1">
          <mxGeometry width="50" height="50" relative="1" as="geometry">
            <mxPoint x="335" y="546.2500000000001" as="sourcePoint" />
            <mxPoint x="295" y="546.2500000000001" as="targetPoint" />
          </mxGeometry>
        </mxCell>
        <mxCell id="zfTTGvhppYqI7xpnwaoA-183" value="" style="shape=flexArrow;endArrow=classic;html=1;rounded=0;" edge="1" parent="1">
          <mxGeometry width="50" height="50" relative="1" as="geometry">
            <mxPoint x="355" y="591.6700000000001" as="sourcePoint" />
            <mxPoint x="395" y="591.6700000000001" as="targetPoint" />
          </mxGeometry>
        </mxCell>
        <mxCell id="zfTTGvhppYqI7xpnwaoA-186" value="Each Task&lt;br&gt;has associated one or more" style="text;html=1;align=center;verticalAlign=middle;resizable=0;points=[];autosize=1;strokeColor=none;fillColor=none;" vertex="1" parent="1">
          <mxGeometry x="535" y="800" width="170" height="40" as="geometry" />
        </mxCell>
        <mxCell id="zfTTGvhppYqI7xpnwaoA-187" value="1..n" style="resizable=0;align=left;verticalAlign=top;labelBackgroundColor=#ffffff;fontSize=10;strokeColor=#003366;shadow=1;fillColor=#D4E1F5;fontColor=#003366;container=0;" connectable="0" vertex="1" parent="1">
          <mxGeometry x="550" y="890" as="geometry" />
        </mxCell>
        <mxCell id="zfTTGvhppYqI7xpnwaoA-188" value="0..n" style="resizable=0;align=left;verticalAlign=top;labelBackgroundColor=#ffffff;fontSize=10;strokeColor=#003366;shadow=1;fillColor=#D4E1F5;fontColor=#003366;container=0;" connectable="0" vertex="1" parent="1">
          <mxGeometry x="500" y="650" as="geometry" />
        </mxCell>
        <mxCell id="zfTTGvhppYqI7xpnwaoA-189" value="Each Resource&lt;br&gt;is associated to zero or more" style="text;html=1;align=center;verticalAlign=middle;resizable=0;points=[];autosize=1;strokeColor=none;fillColor=none;" vertex="1" parent="1">
          <mxGeometry x="365" y="740" width="180" height="40" as="geometry" />
        </mxCell>
        <mxCell id="zfTTGvhppYqI7xpnwaoA-191" style="edgeStyle=orthogonalEdgeStyle;rounded=0;orthogonalLoop=1;jettySize=auto;html=1;entryX=0;entryY=0.75;entryDx=0;entryDy=0;" edge="1" parent="1" source="zfTTGvhppYqI7xpnwaoA-190" target="21">
          <mxGeometry relative="1" as="geometry" />
        </mxCell>
        <mxCell id="zfTTGvhppYqI7xpnwaoA-190" value="/HoursWorked is determined by the sum of all the /HoursWorked of each Task associated to the each Project" style="shape=note2;boundedLbl=1;whiteSpace=wrap;html=1;size=25;verticalAlign=top;align=center;" vertex="1" parent="1">
          <mxGeometry x="245" y="110" width="120" height="130" as="geometry" />
        </mxCell>
        <mxCell id="zfTTGvhppYqI7xpnwaoA-193" style="edgeStyle=orthogonalEdgeStyle;rounded=0;orthogonalLoop=1;jettySize=auto;html=1;entryX=1.007;entryY=0.885;entryDx=0;entryDy=0;entryPerimeter=0;" edge="1" parent="1" source="zfTTGvhppYqI7xpnwaoA-192" target="21">
          <mxGeometry relative="1" as="geometry" />
        </mxCell>
        <mxCell id="zfTTGvhppYqI7xpnwaoA-192" value="/EstimatedHours is determined by the sum of all the EstimatedHours of each Task associated to the each Project" style="shape=note2;boundedLbl=1;whiteSpace=wrap;html=1;size=25;verticalAlign=top;align=center;" vertex="1" parent="1">
          <mxGeometry x="670" y="110" width="120" height="130" as="geometry" />
        </mxCell>
        <mxCell id="zfTTGvhppYqI7xpnwaoA-195" value="Each Task&lt;br&gt;corresponds to one" style="text;html=1;align=center;verticalAlign=middle;resizable=0;points=[];autosize=1;strokeColor=none;fillColor=none;" vertex="1" parent="1">
          <mxGeometry x="545" y="323.36" width="130" height="40" as="geometry" />
        </mxCell>
        <mxCell id="zfTTGvhppYqI7xpnwaoA-196" value="" style="shape=flexArrow;endArrow=classic;html=1;rounded=0;" edge="1" parent="1">
          <mxGeometry width="50" height="50" relative="1" as="geometry">
            <mxPoint x="585" y="323.3600000000001" as="sourcePoint" />
            <mxPoint x="585" y="280.86" as="targetPoint" />
            <Array as="points">
              <mxPoint x="585" y="310.86" />
            </Array>
          </mxGeometry>
        </mxCell>
        <mxCell id="zfTTGvhppYqI7xpnwaoA-197" value="1" style="resizable=0;align=left;verticalAlign=top;labelBackgroundColor=#ffffff;fontSize=10;strokeColor=#003366;shadow=1;fillColor=#D4E1F5;fontColor=#003366;container=0;" connectable="0" vertex="1" parent="1">
          <mxGeometry x="550" y="270" as="geometry" />
        </mxCell>
        <mxCell id="zfTTGvhppYqI7xpnwaoA-198" value="" style="shape=flexArrow;endArrow=classic;html=1;rounded=0;" edge="1" parent="1">
          <mxGeometry width="50" height="50" relative="1" as="geometry">
            <mxPoint x="509.17" y="415" as="sourcePoint" />
            <mxPoint x="509.17" y="457.5000000000001" as="targetPoint" />
            <Array as="points">
              <mxPoint x="509.17" y="445" />
              <mxPoint x="509.17" y="428.75" />
            </Array>
          </mxGeometry>
        </mxCell>
        <mxCell id="zfTTGvhppYqI7xpnwaoA-199" value="Each Project&lt;br&gt;has associated zero or more" style="text;html=1;align=center;verticalAlign=middle;resizable=0;points=[];autosize=1;strokeColor=none;fillColor=none;" vertex="1" parent="1">
          <mxGeometry x="365" y="370" width="170" height="40" as="geometry" />
        </mxCell>
        <mxCell id="zfTTGvhppYqI7xpnwaoA-200" value="0..n" style="resizable=0;align=left;verticalAlign=top;labelBackgroundColor=#ffffff;fontSize=10;strokeColor=#003366;shadow=1;fillColor=#D4E1F5;fontColor=#003366;container=0;" connectable="0" vertex="1" parent="1">
          <mxGeometry x="500" y="465" as="geometry" />
        </mxCell>
        <mxCell id="zfTTGvhppYqI7xpnwaoA-202" value="1" style="resizable=0;align=left;verticalAlign=top;labelBackgroundColor=#ffffff;fontSize=10;strokeColor=#003366;shadow=1;fillColor=#D4E1F5;fontColor=#003366;container=0;" connectable="0" vertex="1" parent="1">
          <mxGeometry x="630" y="970" as="geometry" />
        </mxCell>
        <mxCell id="zfTTGvhppYqI7xpnwaoA-203" value="Each Resource&lt;br&gt;is associated to zero or more" style="text;html=1;align=center;verticalAlign=middle;resizable=0;points=[];autosize=1;strokeColor=none;fillColor=none;" vertex="1" parent="1">
          <mxGeometry x="870" y="731.5" width="180" height="40" as="geometry" />
        </mxCell>
        <mxCell id="zfTTGvhppYqI7xpnwaoA-204" value="Each Ticket&lt;br&gt;has associated one" style="text;html=1;align=center;verticalAlign=middle;resizable=0;points=[];autosize=1;strokeColor=none;fillColor=none;" vertex="1" parent="1">
          <mxGeometry x="630" y="1008.36" width="130" height="40" as="geometry" />
        </mxCell>
        <mxCell id="zfTTGvhppYqI7xpnwaoA-205" value="" style="shape=flexArrow;endArrow=classic;html=1;rounded=0;" edge="1" parent="1">
          <mxGeometry width="50" height="50" relative="1" as="geometry">
            <mxPoint x="715" y="990.0000000000001" as="sourcePoint" />
            <mxPoint x="675" y="990.0000000000001" as="targetPoint" />
          </mxGeometry>
        </mxCell>
        <mxCell id="zfTTGvhppYqI7xpnwaoA-206" value="0..n" style="resizable=0;align=left;verticalAlign=top;labelBackgroundColor=#ffffff;fontSize=10;strokeColor=#003366;shadow=1;fillColor=#D4E1F5;fontColor=#003366;container=0;" connectable="0" vertex="1" parent="1">
          <mxGeometry x="1020" y="656.25" as="geometry" />
        </mxCell>
        <mxCell id="zfTTGvhppYqI7xpnwaoA-207" value="" style="shape=flexArrow;endArrow=classic;html=1;rounded=0;" edge="1" parent="1">
          <mxGeometry width="50" height="50" relative="1" as="geometry">
            <mxPoint x="1010" y="731.5000000000001" as="sourcePoint" />
            <mxPoint x="1010" y="689" as="targetPoint" />
            <Array as="points">
              <mxPoint x="1010" y="719" />
            </Array>
          </mxGeometry>
        </mxCell>
        <mxCell id="zfTTGvhppYqI7xpnwaoA-209" value="1..n" style="resizable=0;align=left;verticalAlign=top;labelBackgroundColor=#ffffff;fontSize=10;strokeColor=#003366;shadow=1;fillColor=#D4E1F5;fontColor=#003366;container=0;" connectable="0" vertex="1" parent="1">
          <mxGeometry x="425" y="930" as="geometry" />
        </mxCell>
        <mxCell id="zfTTGvhppYqI7xpnwaoA-210" value="Each Project&lt;br&gt;has associated one or more" style="text;html=1;align=center;verticalAlign=middle;resizable=0;points=[];autosize=1;strokeColor=none;fillColor=none;" vertex="1" parent="1">
          <mxGeometry x="300" y="881" width="170" height="40" as="geometry" />
        </mxCell>
        <mxCell id="zfTTGvhppYqI7xpnwaoA-211" value="" style="shape=flexArrow;endArrow=classic;html=1;rounded=0;" edge="1" parent="1">
          <mxGeometry width="50" height="50" relative="1" as="geometry">
            <mxPoint x="365" y="940.0000000000001" as="sourcePoint" />
            <mxPoint x="405" y="940.0000000000001" as="targetPoint" />
          </mxGeometry>
        </mxCell>
        <mxCell id="zfTTGvhppYqI7xpnwaoA-212" value="0..n" style="resizable=0;align=left;verticalAlign=top;labelBackgroundColor=#ffffff;fontSize=10;strokeColor=#003366;shadow=1;fillColor=#D4E1F5;fontColor=#003366;container=0;" connectable="0" vertex="1" parent="1">
          <mxGeometry x="550" y="90" as="geometry" />
        </mxCell>
        <mxCell id="zfTTGvhppYqI7xpnwaoA-213" value="" style="shape=flexArrow;endArrow=classic;html=1;rounded=0;" edge="1" parent="1">
          <mxGeometry width="50" height="50" relative="1" as="geometry">
            <mxPoint x="560" y="40" as="sourcePoint" />
            <mxPoint x="560.33" y="82.5" as="targetPoint" />
            <Array as="points">
              <mxPoint x="560.0000000000001" y="80" />
              <mxPoint x="560.0000000000001" y="63.75" />
            </Array>
          </mxGeometry>
        </mxCell>
        <mxCell id="zfTTGvhppYqI7xpnwaoA-214" value="Each Resource&lt;br&gt;is associated to zero or more" style="text;html=1;align=center;verticalAlign=middle;resizable=0;points=[];autosize=1;strokeColor=none;fillColor=none;" vertex="1" parent="1">
          <mxGeometry x="450" width="180" height="40" as="geometry" />
        </mxCell>
        <mxCell id="zfTTGvhppYqI7xpnwaoA-215" value="&lt;font style=&quot;font-size: 28px;&quot;&gt;RESOURCE MODULE&lt;/font&gt;" style="text;html=1;align=center;verticalAlign=middle;resizable=0;points=[];autosize=1;strokeColor=#A50040;fillColor=#d80073;fontColor=#ffffff;" vertex="1" parent="1">
          <mxGeometry x="125" y="1040" width="310" height="50" as="geometry" />
        </mxCell>
        <mxCell id="zfTTGvhppYqI7xpnwaoA-216" value="&lt;font style=&quot;font-size: 28px;&quot;&gt;PROJECT MODULE&lt;/font&gt;" style="text;html=1;align=center;verticalAlign=middle;resizable=0;points=[];autosize=1;strokeColor=#6F0000;fillColor=#a20025;fontColor=#ffffff;" vertex="1" parent="1">
          <mxGeometry x="95" y="20.00000000000002" width="280" height="50" as="geometry" />
        </mxCell>
        <mxCell id="zfTTGvhppYqI7xpnwaoA-217" value="" style="endArrow=none;dashed=1;html=1;rounded=0;" edge="1" parent="1">
          <mxGeometry width="50" height="50" relative="1" as="geometry">
            <mxPoint y="370" as="sourcePoint" />
            <mxPoint x="826" y="370" as="targetPoint" />
          </mxGeometry>
        </mxCell>
      </root>
    </mxGraphModel>
  </diagram>
</mxfile>
